<svg id="Capa_1" enable-background="new 0 0 512 512" height="512" viewBox="0 0 512 512" width="512" xmlns="http://www.w3.org/2000/svg"><g><path d="m409.973 226.242h-20.669c1.9 9.626 2.905 19.574 2.905 29.758s-1.005 20.132-2.905 29.758h20.669c8.552 0 15.484-6.932 15.484-15.484v-28.549c0-8.551-6.933-15.483-15.484-15.483z" fill="#e7a561"/><g><path d="m409.973 267.178h-18.171c-.459 6.307-1.299 12.508-2.498 18.581h20.669c8.552 0 15.484-6.932 15.484-15.484v-18.581c0 8.551-6.933 15.484-15.484 15.484z" fill="#e49542"/></g><g><path d="m239.376 103.167c29.517 0 57.075 8.377 80.441 22.87v-105.392c0-11.402-9.243-20.645-20.645-20.645h-116.63c-11.402 0-20.645 9.243-20.645 20.645v103.602c22.72-13.39 49.199-21.08 77.479-21.08z" fill="#aa593d"/><path d="m161.897 105.666v18.581c22.72-13.39 49.2-21.08 77.48-21.08 29.517 0 57.075 8.377 80.441 22.87v-18.581c-23.366-14.493-50.923-22.87-80.441-22.87-28.281.001-54.76 7.691-77.48 21.08z" fill="#7a402b"/><path d="m239.376 408.833c-28.28 0-54.76-7.69-77.479-21.08v103.602c0 11.402 9.243 20.645 20.645 20.645h116.63c11.402 0 20.645-9.243 20.645-20.645v-105.392c-23.366 14.493-50.923 22.87-80.441 22.87z" fill="#aa593d"/><path d="m239.376 408.833c-28.28 0-54.76-7.69-77.48-21.08v18.581c22.72 13.39 49.2 21.08 77.48 21.08 29.517 0 57.075-8.377 80.441-22.87v-18.581c-23.366 14.493-50.923 22.87-80.441 22.87z" fill="#7a402b"/></g><circle cx="239.376" cy="256" fill="#f9ef63" r="152.833"/><path d="m239.376 390.252c-81.286 0-147.74-63.463-152.543-143.542-.184 3.074-.289 6.17-.289 9.29 0 84.407 68.426 152.833 152.833 152.833s152.833-68.426 152.833-152.833c0-3.12-.105-6.216-.289-9.29-4.804 80.079-71.258 143.542-152.545 143.542z" fill="#f1d333"/><ellipse cx="239.376" cy="256" fill="#eaeaea" rx="115.992" ry="115.992" transform="matrix(.707 -.707 .707 .707 -110.908 244.245)"/><path d="m355.367 256c0 2.596-.082 5.172-.268 7.727-1.71 26.271-12.188 50.152-28.538 68.758-3.39 3.884-7.047 7.531-10.941 10.921-18.627 16.268-42.498 26.673-68.748 28.342-2.483.165-4.976.247-7.5.247-2.668 0-5.326-.093-7.954-.278-26.178-1.762-49.987-12.219-68.532-28.527-3.874-3.389-7.531-7.047-10.91-10.941-16.226-18.565-26.611-42.363-28.321-68.521-.185-2.555-.268-5.131-.268-7.727s.082-5.172.268-7.727c1.71-26.158 12.095-49.956 28.321-68.521 3.379-3.894 7.036-7.552 10.91-10.941 18.544-16.309 42.353-26.766 68.532-28.527 2.627-.185 5.285-.278 7.954-.278 2.524 0 5.017.082 7.5.247 26.25 1.669 50.121 12.074 68.748 28.342 3.894 3.39 7.551 7.037 10.941 10.921 16.35 18.606 26.827 42.487 28.538 68.758.185 2.553.268 5.129.268 7.725z" fill="#eaeaea"/><path d="m239.376 353.411c-60.933 0-110.888-46.985-115.621-106.701-.243 3.065-.371 6.163-.371 9.29 0 64.06 51.931 115.992 115.992 115.992s115.992-51.931 115.992-115.992c0-3.127-.128-6.225-.371-9.29-4.733 59.716-54.688 106.701-115.621 106.701z" fill="#cbcbcb"/><g><path d="m209.619 293.5c1.982 0 3.963-.756 5.475-2.268l29.752-29.758c1.452-1.452 2.267-3.421 2.267-5.474v-55.479c0-4.276-3.466-7.742-7.742-7.742s-7.742 3.466-7.742 7.742v52.273l-27.485 27.49c-3.023 3.024-3.023 7.926.001 10.949 1.512 1.511 3.493 2.267 5.474 2.267z" fill="#aa593d"/></g><g fill="#7a402b"><path d="m246.872 140.252v28.023c0 4.265-3.451 7.727-7.727 7.727-4.265 0-7.727-3.462-7.727-7.727v-27.992c2.627-.185 5.285-.278 7.954-.278 2.524 0 5.017.082 7.5.247z"/><path d="m246.872 343.725v28.022c-5.143.342-10.312.332-15.454-.031v-27.992c0-4.265 3.462-7.727 7.727-7.727 4.276.001 7.727 3.463 7.727 7.728z"/><path d="m355.367 256c0 2.596-.082 5.172-.268 7.727h-28.218c-4.265 0-7.727-3.462-7.727-7.727s3.461-7.727 7.727-7.727h28.218c.185 2.555.268 5.131.268 7.727z"/><path d="m159.147 256c0 4.265-3.462 7.727-7.727 7.727h-27.765c-.373-5.136-.373-10.318 0-15.454h27.765c4.265 0 7.727 3.462 7.727 7.727z"/><path d="m326.561 332.485c-3.39 3.884-7.047 7.531-10.941 10.921l-19.904-19.904c-3.019-3.019-3.019-7.912 0-10.931 3.018-3.019 7.912-3.019 10.931 0z"/><path d="m182.585 199.429c-2.99 2.97-7.945 2.986-10.931 0l-19.678-19.678c3.379-3.894 7.036-7.552 10.91-10.941l19.698 19.688c3.009 3.019 3.009 7.913.001 10.931z"/><path d="m182.585 323.501-19.698 19.688c-3.874-3.389-7.531-7.047-10.91-10.941l19.678-19.678c3.019-3.019 7.912-3.019 10.931 0 3.007 3.019 3.007 7.913-.001 10.931z"/><path d="m326.561 179.515-19.915 19.915c-3.144 3.144-8.449 2.934-11.341-.444-2.59-3.025-2.403-7.673.411-10.487l19.904-19.904c3.894 3.389 7.552 7.036 10.941 10.92z"/></g></g></svg>